<?xml version="1.0" encoding="UTF-8" standalone="no"?>
<!DOCTYPE svg PUBLIC "-//W3C//DTD SVG 1.1//EN"
 "http://www.w3.org/Graphics/SVG/1.1/DTD/svg11.dtd">
<!-- Generated by graphviz version 2.40.1 (20161225.0304)
 -->
<!-- Title: G Pages: 1 -->
<svg width="296pt" height="150pt"
 viewBox="0.00 0.00 295.69 150.00" xmlns="http://www.w3.org/2000/svg" xmlns:xlink="http://www.w3.org/1999/xlink">
<g id="graph0" class="graph" transform="scale(1 1) rotate(0) translate(4 146)">
<title>G</title>
<polygon fill="#ffffff" stroke="transparent" points="-4,4 -4,-146 291.6897,-146 291.6897,4 -4,4"/>
<g id="clust1" class="cluster">
<title>cluster_Global</title>
<path fill="none" stroke="#c0c0c0" d="M191.6897,-8C191.6897,-8 267.6897,-8 267.6897,-8 273.6897,-8 279.6897,-14 279.6897,-20 279.6897,-20 279.6897,-122 279.6897,-122 279.6897,-128 273.6897,-134 267.6897,-134 267.6897,-134 191.6897,-134 191.6897,-134 185.6897,-134 179.6897,-128 179.6897,-122 179.6897,-122 179.6897,-20 179.6897,-20 179.6897,-14 185.6897,-8 191.6897,-8"/>
<text text-anchor="middle" x="229.6897" y="-121.2" font-family="Times,serif" font-size="11.00" fill="#c0c0c0">Global</text>
</g>
<!-- \\beneficio -->
<g id="node1" class="node">
<title>\\beneficio</title>
<polygon fill="none" stroke="#000000" points="268.1897,-106 191.1897,-106 191.1897,-70 268.1897,-70 268.1897,-106"/>
<text text-anchor="middle" x="229.6897" y="-85.2" font-family="Courier,monospace" font-size="11.00" fill="#000000">beneficio</text>
</g>
<!-- \\fs_model -->
<g id="node3" class="node">
<title>\\fs_model</title>
<ellipse fill="none" stroke="#000000" cx="57.8449" cy="-88" rx="46.2923" ry="18"/>
<text text-anchor="middle" x="57.8449" y="-84.3" font-family="Times,serif" font-size="14.00" fill="#c0c0c0">\fs_model</text>
</g>
<!-- \\beneficio&#45;&gt;\\fs_model -->
<g id="edge1" class="edge">
<title>\\beneficio&#45;&gt;\\fs_model</title>
<path fill="none" stroke="#000000" d="M191.1244,-88C168.5114,-88 139.5342,-88 114.3783,-88"/>
<polygon fill="none" stroke="#000000" points="114.2248,-84.5001 104.2247,-88 114.2247,-91.5001 114.2248,-84.5001"/>
</g>
<!-- \\beneficios -->
<g id="node2" class="node">
<title>\\beneficios</title>
<polygon fill="none" stroke="#000000" points="271.6897,-52 187.6897,-52 187.6897,-16 271.6897,-16 271.6897,-52"/>
<text text-anchor="middle" x="229.6897" y="-31.2" font-family="Courier,monospace" font-size="11.00" fill="#000000">beneficios</text>
</g>
<!-- \\fs_controller -->
<g id="node4" class="node">
<title>\\fs_controller</title>
<ellipse fill="none" stroke="#000000" cx="57.8449" cy="-34" rx="57.6901" ry="18"/>
<text text-anchor="middle" x="57.8449" y="-30.3" font-family="Times,serif" font-size="14.00" fill="#c0c0c0">\fs_controller</text>
</g>
<!-- \\beneficios&#45;&gt;\\fs_controller -->
<g id="edge2" class="edge">
<title>\\beneficios&#45;&gt;\\fs_controller</title>
<path fill="none" stroke="#000000" d="M187.6518,-34C169.1219,-34 146.8698,-34 126.0652,-34"/>
<polygon fill="none" stroke="#000000" points="125.991,-30.5001 115.9909,-34 125.9909,-37.5001 125.991,-30.5001"/>
</g>
</g>
</svg>
